<svg xmlns="http://www.w3.org/2000/svg" viewBox="0 0 512 512" role="img" aria-label="Auto Authenticator Local logo">
  <defs>
    <linearGradient id="bg" x1="0" x2="1" y1="0" y2="1">
      <stop offset="0%" stop-color="#0E2F2A"/>
      <stop offset="100%" stop-color="#1F6F5F"/>
    </linearGradient>
  </defs>
  <rect width="512" height="512" rx="96" fill="url(#bg)"/>
  <circle cx="256" cy="256" r="170" fill="#0B211D" opacity="0.28"/>
  <path d="M256 96c-57.4 0-104 46.6-104 104v40h-24c-22.1 0-40 17.9-40 40v112c0 22.1 17.9 40 40 40h256c22.1 0 40-17.9 40-40V280c0-22.1-17.9-40-40-40h-24v-40c0-57.4-46.6-104-104-104Zm-56 144v-40c0-30.9 25.1-56 56-56s56 25.1 56 56v40H200Z" fill="#E8FFF4"/>
  <text x="256" y="348" text-anchor="middle" font-size="88" font-family="Menlo, Monaco, monospace" fill="#39D98A">6D</text>
  <text x="256" y="398" text-anchor="middle" font-size="28" font-family="Helvetica, Arial, sans-serif" fill="#B8EFD6">LOCAL TOTP</text>
</svg>
