<svg xmlns="http://www.w3.org/2000/svg" viewBox="0 0 1600 900" role="img" aria-label="Auto Authenticator Local GitHub promo image">
  <defs>
    <linearGradient id="bg" x1="0" x2="1" y1="0" y2="1">
      <stop offset="0%" stop-color="#081411"/>
      <stop offset="45%" stop-color="#103A33"/>
      <stop offset="100%" stop-color="#1A6B59"/>
    </linearGradient>
    <linearGradient id="panel" x1="0" x2="1" y1="0" y2="1">
      <stop offset="0%" stop-color="#102520" stop-opacity="0.96"/>
      <stop offset="100%" stop-color="#0A1714" stop-opacity="0.88"/>
    </linearGradient>
    <linearGradient id="glow" x1="0" x2="1" y1="0" y2="0">
      <stop offset="0%" stop-color="#42F5A1"/>
      <stop offset="100%" stop-color="#9FFFD6"/>
    </linearGradient>
    <filter id="softGlow" x="-50%" y="-50%" width="200%" height="200%">
      <feGaussianBlur stdDeviation="14" result="blur"/>
      <feMerge>
        <feMergeNode in="blur"/>
        <feMergeNode in="SourceGraphic"/>
      </feMerge>
    </filter>
  </defs>

  <rect width="1600" height="900" fill="url(#bg)"/>
  <circle cx="1320" cy="120" r="260" fill="#5BFFD1" opacity="0.10"/>
  <circle cx="220" cy="820" r="320" fill="#36E79C" opacity="0.07"/>
  <path d="M0 690C240 620 360 760 580 700s276-213 497-198c241 17 345 155 523 102V900H0Z" fill="#07100E" opacity="0.35"/>

  <g opacity="0.22" stroke="#7CF5C4" stroke-width="1">
    <path d="M90 120H690"/>
    <path d="M70 180H430"/>
    <path d="M980 680H1510"/>
    <path d="M1080 740H1450"/>
    <path d="M1180 800H1490"/>
  </g>

  <rect x="95" y="86" width="1410" height="728" rx="34" fill="url(#panel)" stroke="#66EABB" stroke-opacity="0.22"/>

  <g transform="translate(120 122)">
    <text x="0" y="0" font-size="24" font-family="Helvetica, Arial, sans-serif" fill="#8DEFC6" letter-spacing="4">LOCAL-FIRST TOTP FOR AUTHORIZED WORKFLOWS</text>
    <text x="0" y="96" font-size="92" font-weight="700" font-family="Helvetica, Arial, sans-serif" fill="#F4FFF9">Auto Authenticator</text>
    <text x="0" y="176" font-size="92" font-weight="700" font-family="Helvetica, Arial, sans-serif" fill="#F4FFF9">Local</text>
    <text x="0" y="240" font-size="30" font-family="Helvetica, Arial, sans-serif" fill="#C5F7E2">Secure desktop verification support with explicit 6-digit TOTP generation.</text>
  </g>

  <g transform="translate(112 336)">
    <rect width="604" height="390" rx="28" fill="#0D1F1B" stroke="#71F7C8" stroke-opacity="0.16"/>
    <rect x="36" y="36" width="532" height="56" rx="14" fill="#0A1614" stroke="#71F7C8" stroke-opacity="0.12"/>
    <circle cx="68" cy="64" r="7" fill="#FF857A"/>
    <circle cx="94" cy="64" r="7" fill="#FFD166"/>
    <circle cx="120" cy="64" r="7" fill="#47E5A6"/>
    <text x="156" y="72" font-size="22" font-family="Menlo, Monaco, monospace" fill="#C9FFE7">Desktop Flow</text>

    <rect x="42" y="126" width="250" height="218" rx="20" fill="#101A18"/>
    <rect x="322" y="126" width="230" height="218" rx="20" fill="#0E2A24" stroke="#71F7C8" stroke-opacity="0.18"/>

    <rect x="66" y="154" width="198" height="116" rx="18" fill="#0D2420" stroke="#71F7C8" stroke-opacity="0.14"/>
    <rect x="94" y="188" width="144" height="48" rx="10" fill="#133730"/>
    <text x="112" y="220" font-size="28" font-family="Menlo, Monaco, monospace" fill="#7DFFD1">AUTH</text>
    <path d="M154 125v-20c0-33 27-60 60-60s60 27 60 60v20" transform="translate(-34 146)" fill="none" stroke="#DFFFF2" stroke-width="12" stroke-linecap="round"/>

    <text x="344" y="170" font-size="20" font-family="Helvetica, Arial, sans-serif" fill="#95EFD0">Verification code</text>
    <text x="344" y="252" font-size="70" font-family="Menlo, Monaco, monospace" fill="url(#glow)" filter="url(#softGlow)">612 483</text>
    <text x="344" y="306" font-size="18" font-family="Helvetica, Arial, sans-serif" fill="#A3EED5">generated locally on explicit request</text>

    <rect x="42" y="360" width="510" height="16" rx="8" fill="#122722"/>
    <rect x="42" y="360" width="368" height="16" rx="8" fill="url(#glow)"/>
  </g>

  <g transform="translate(788 324)">
    <rect width="690" height="418" rx="34" fill="#0A1614" stroke="#71F7C8" stroke-opacity="0.16"/>
    <text x="54" y="64" font-size="26" font-family="Helvetica, Arial, sans-serif" fill="#8DEFC6">Why people trust it</text>

    <g font-family="Helvetica, Arial, sans-serif" font-size="34" fill="#F2FFF8">
      <text x="54" y="138">System-vault-backed secret storage</text>
      <text x="54" y="208">Desktop-first, explicit code generation</text>
      <text x="54" y="278">Small, readable, auditable Python tooling</text>
      <text x="54" y="348">Built for accounts you own or manage</text>
    </g>

    <g transform="translate(468 86)">
      <circle cx="110" cy="110" r="102" fill="#0F2923" stroke="#72F2C4" stroke-opacity="0.20"/>
      <circle cx="110" cy="110" r="64" fill="none" stroke="#7DFFD1" stroke-width="14" stroke-dasharray="260 120" transform="rotate(-40 110 110)"/>
      <path d="M110 62c-24.3 0-44 19.7-44 44v17h-10c-9.9 0-18 8.1-18 18v48c0 9.9 8.1 18 18 18h108c9.9 0 18-8.1 18-18v-48c0-9.9-8.1-18-18-18h-10v-17c0-24.3-19.7-44-44-44Zm-24 61v-17c0-13.2 10.8-24 24-24s24 10.8 24 24v17H86Z" fill="#E9FFF6"/>
      <text x="110" y="170" text-anchor="middle" font-size="30" font-family="Menlo, Monaco, monospace" fill="#3EF2A6">TOTP</text>
    </g>
  </g>

  <g transform="translate(120 784)">
    <text x="0" y="0" font-size="24" font-family="Helvetica, Arial, sans-serif" fill="#9AEFD2">Open-source • local-only secrets • made for desktop automation with permission</text>
  </g>
</svg>
